<?xml version="1.0" encoding="UTF-8" standalone="no"?>
<!-- Created with Inkscape (http://www.inkscape.org/) -->

<svg
   xmlns:dc="http://purl.org/dc/elements/1.1/"
   xmlns:cc="http://creativecommons.org/ns#"
   xmlns:rdf="http://www.w3.org/1999/02/22-rdf-syntax-ns#"
   xmlns:svg="http://www.w3.org/2000/svg"
   xmlns="http://www.w3.org/2000/svg"
   xmlns:xlink="http://www.w3.org/1999/xlink"
   xmlns:sodipodi="http://sodipodi.sourceforge.net/DTD/sodipodi-0.dtd"
   xmlns:inkscape="http://www.inkscape.org/namespaces/inkscape"
   width="104.46625mm"
   height="77.127266mm"
   viewBox="0 0 370.156 273.28559"
   id="svg4342"
   version="1.1"
   inkscape:version="0.91 r13725"
   sodipodi:docname="openclipartscissors.svg">
  <defs
     id="defs4344">
    <linearGradient
       inkscape:collect="always"
       id="linearGradient5003">
      <stop
         style="stop-color:#666666;stop-opacity:1"
         offset="0"
         id="stop5005" />
      <stop
         style="stop-color:#b3b3b3;stop-opacity:1"
         offset="1"
         id="stop5007" />
    </linearGradient>
    <linearGradient
       inkscape:collect="always"
       id="linearGradient4965">
      <stop
         style="stop-color:#666666;stop-opacity:1"
         offset="0"
         id="stop4967" />
      <stop
         style="stop-color:#808080;stop-opacity:1"
         offset="1"
         id="stop4969" />
    </linearGradient>
    <linearGradient
       inkscape:collect="always"
       xlink:href="#linearGradient4965"
       id="linearGradient4971"
       x1="197.29489"
       y1="595.1994"
       x2="315.99722"
       y2="660.47571"
       gradientUnits="userSpaceOnUse"
       gradientTransform="matrix(2.9706395,0,0,2.9706395,-387.12685,-1334.4168)" />
    <filter
       style="color-interpolation-filters:sRGB"
       inkscape:label="Blur"
       id="filter4996">
      <feGaussianBlur
         stdDeviation="2 2"
         result="blur"
         id="feGaussianBlur4998" />
    </filter>
    <linearGradient
       inkscape:collect="always"
       xlink:href="#linearGradient5003"
       id="linearGradient5009"
       x1="196.63173"
       y1="657.20624"
       x2="315.93066"
       y2="597.2467"
       gradientUnits="userSpaceOnUse"
       gradientTransform="matrix(2.9706395,0,0,2.9706395,-387.12685,-1334.4168)" />
    <filter
       inkscape:collect="always"
       style="color-interpolation-filters:sRGB"
       id="filter5355"
       x="-0.020571956"
       width="1.0411439"
       y="-0.028798964"
       height="1.0575979">
      <feGaussianBlur
         inkscape:collect="always"
         stdDeviation="1.0258609"
         id="feGaussianBlur5357" />
    </filter>
  </defs>
  <sodipodi:namedview
     id="base"
     pagecolor="#ffffff"
     bordercolor="#666666"
     borderopacity="1.0"
     inkscape:pageopacity="0.0"
     inkscape:pageshadow="2"
     inkscape:zoom="1.975955"
     inkscape:cx="176.22152"
     inkscape:cy="138.37763"
     inkscape:document-units="px"
     inkscape:current-layer="layer1"
     showgrid="false"
     inkscape:window-width="1366"
     inkscape:window-height="715"
     inkscape:window-x="-8"
     inkscape:window-y="-8"
     inkscape:window-maximized="1"
     fit-margin-top="0"
     fit-margin-left="0"
     fit-margin-right="0"
     fit-margin-bottom="0" />
  <metadata
     id="metadata4347">
    <rdf:RDF>
      <cc:Work
         rdf:about="">
        <dc:format>image/svg+xml</dc:format>
        <dc:type
           rdf:resource="http://purl.org/dc/dcmitype/StillImage" />
        <dc:title />
      </cc:Work>
    </rdf:RDF>
  </metadata>
  <g
     inkscape:label="レイヤー 1"
     inkscape:groupmode="layer"
     id="layer1"
     transform="translate(-196.44733,-403.86352)">
    <g
       id="g4152">
      <path
         transform="matrix(2.9706395,0,0,2.9706395,-391.12685,-1338.4168)"
         inkscape:tile-y0="3.8813677e-11"
         inkscape:tile-x0="1.7758374e-08"
         inkscape:tile-h="85.49148"
         inkscape:tile-w="119.68071"
         inkscape:tile-cy="42.745733"
         inkscape:tile-cx="59.840354"
         inkscape:connector-curvature="0"
         d="m 215.11328,589.19638 c -6.58434,-0.0565 -13.34447,2.83574 -15.32362,8.23403 -2.94131,6.5134 1.77871,14.12291 9.83851,16.46807 0.0257,0.007 0.063,-0.007 0.0868,0 8.78931,3.17674 19.72826,4.72784 29.2544,14.58391 l 3.56968,3.69835 -3.22147,3.27966 c -9.55331,9.83924 -20.45571,11.35306 -29.25439,14.51417 -0.0192,0.01 -0.0645,-0.01 -0.0868,0 -8.03732,2.32229 -12.69903,9.89503 -9.83828,16.39833 0.01,0.0192 -0.01,0.0495 0,0.0697 2.4452,6.58098 12.04853,9.49464 19.76385,7.74562 0.0257,-0.005 0.0608,0.005 0.0868,0 7.90169,-1.37747 14.37108,-7.80646 12.53742,-14.30495 -0.90468,-3.20608 -2.06235,-4.69489 -3.13441,-5.5825 -0.53601,-0.44369 -1.00372,-0.72084 -1.30598,-0.9769 -0.30221,-0.25604 -1.57382,-0.9688 -1.57382,-0.9688 0.78683,-0.5727 1.24643,-0.84365 1.92192,-1.26413 1.00924,-0.65767 2.77225,-1.46573 5.04984,-2.44232 4.51501,-1.93603 11.16452,-4.66964 18.80601,-9.07138 13.82087,7.85624 31.77944,18.03071 41.70405,23.65529 9.92557,5.62459 20.08441,2.78765 24.29088,0.20922 l -53.23024,-31.24312 53.53565,-31.54857 c -8.29776,-5.11742 -17.76642,-2.95021 -24.07445,0.13082 -14.02263,7.95315 -28.09047,15.86831 -42.13931,23.79477 -6.40663,-3.50163 -13.28123,-6.71228 -19.24128,-9.2806 -2.27961,-0.9821 -4.03863,-1.78145 -5.04984,-2.44232 -0.50566,-0.33042 -1.78482,-1.04669 -1.78482,-1.04669 1.16938,-0.68156 2.4084,-1.93752 3.30852,-2.89586 0.90014,-0.95833 1.95953,-2.37748 2.56857,-4.84976 1.61006,-6.53672 -4.63886,-12.98279 -12.53743,-14.37469 -1.52652,-0.3378 -3.17602,-0.38744 -4.52727,-0.48844 z m -0.87061,5.51252 c 2.93891,-0.13803 5.97208,0.66572 7.92286,2.23295 2.92255,2.34791 3.47926,5.58203 2.35078,8.23404 -1.12847,2.65201 -3.83325,4.61241 -7.66169,4.60543 l -0.0868,0 c -3.50908,0.16257 -6.93159,-1.45832 -8.96774,-3.83782 -2.03616,-2.37955 -2.61666,-5.33889 -0.60942,-7.8851 l 0,-0.0697 c 1.38673,-2.1124 4.11533,-3.14163 7.05231,-3.27966 z m 2.26366,59.38173 c 0.26032,-0.005 0.52899,-0.01 0.69653,0 3.82916,-1.9e-4 6.53985,1.95426 7.66169,4.60543 1.12189,2.65105 0.57848,5.89128 -2.35079,8.23404 -1.95291,1.56194 -5.06979,2.44063 -8.0099,2.30271 -2.94035,-0.13803 -5.58395,-1.234 -6.96526,-3.3494 l -0.0868,-0.0697 c -1.9369,-2.46925 -1.37454,-5.26291 0.52239,-7.60591 1.89691,-2.34316 5.15036,-4.06795 8.53247,-4.11701 z"
         style="color:#000000;text-indent:0;text-transform:none;block-progression:tb;opacity:0.45;fill:#000000;filter:url(#filter5355)"
         id="path5949-1" />
      <path
         sodipodi:nodetypes="ccccccccccccccccccccssccscccc"
         inkscape:tile-y0="3.8813677e-11"
         inkscape:tile-x0="1.7758374e-08"
         inkscape:tile-h="85.49148"
         inkscape:tile-w="119.68071"
         inkscape:tile-cy="42.745733"
         inkscape:tile-cx="59.840354"
         inkscape:connector-curvature="0"
         d="m 246.10152,403.86593 c -19.5597,-0.16784 -39.64161,8.42396 -45.52095,24.46033 -8.73757,19.34897 5.28391,41.95408 29.22667,48.9207 0.0763,0.0208 0.18715,-0.0208 0.25785,0 26.10987,9.43695 58.60555,14.04471 86.90428,43.32354 l 10.60423,10.98647 c 8.48902,10.09898 28.96578,21.97233 28.96578,21.97233 41.05683,23.33806 94.40526,53.56274 123.8877,70.27134 29.48529,16.70863 59.66354,8.2811 72.15945,0.62152 L 394.45868,531.61011 c -37.6621,-22.64512 0,0 -37.6621,-22.64512 -19.03179,-10.40208 -39.45374,-19.93977 -57.1589,-27.56932 -6.7719,-2.91747 -11.99732,-5.29205 -15.00126,-7.25525 -1.50213,-0.98156 -5.30206,-3.10934 -5.30206,-3.10934 3.47381,-2.02467 7.15449,-5.75567 9.82842,-8.60256 2.674,-2.84685 5.82106,-7.06263 7.6303,-14.40689 4.78291,-19.41823 -13.78038,-38.56718 -37.24418,-42.70202 -4.53475,-1.00348 -9.43482,-1.15094 -13.44889,-1.45098 z m -2.58627,16.37571 c 8.73045,-0.41004 17.7409,1.97761 23.53597,6.63329 8.68184,6.97479 10.33562,16.5822 6.98332,24.46036 -3.35228,7.87817 -11.38721,13.70181 -22.76012,13.68108 l -0.25785,0 c -10.42422,0.48293 -20.59126,-4.33215 -26.63993,-11.40078 -6.04869,-7.06879 -7.77315,-15.85992 -1.81036,-23.42379 l 0,-0.20706 c 4.11947,-6.27518 12.22516,-9.33265 20.94987,-9.74268 z"
         style="color:#000000;text-indent:0;text-transform:none;block-progression:tb;fill:url(#linearGradient4971);fill-opacity:1"
         id="path5949-2" />
      <path
         sodipodi:nodetypes="ccccccccsccccccccccccccccccccc"
         inkscape:tile-y0="3.8813677e-11"
         inkscape:tile-x0="1.7758374e-08"
         inkscape:tile-h="85.49148"
         inkscape:tile-w="119.68071"
         inkscape:tile-cy="42.745733"
         inkscape:tile-cx="59.840354"
         inkscape:connector-curvature="0"
         d="m 328.71741,533.07176 -9.56982,9.74268 c -28.37944,29.22884 -60.76654,33.72585 -86.90425,43.11637 -0.057,0.0297 -0.1916,-0.0297 -0.25785,0 -23.87598,6.89869 -37.72424,29.39457 -29.22598,48.71353 0.0297,0.057 -0.0297,0.14704 0,0.20705 7.2638,19.54972 35.79184,28.20515 58.71127,23.00945 0.0763,-0.0149 0.18062,0.0148 0.25785,0 23.47307,-4.09197 42.6913,-23.19018 37.24416,-42.49485 -2.68748,-9.52411 -6.1265,-13.94683 -9.31121,-16.5836 -1.59229,-1.31804 -2.98169,-2.14136 -3.87959,-2.90202 -0.89776,-0.7606 -4.67525,-2.87795 -4.67525,-2.87795 2.33739,-1.70129 3.70269,-2.50618 5.70933,-3.75528 2.99809,-1.9537 8.23535,-4.35415 15.00125,-7.25525 13.41247,-5.75125 33.16577,-13.87182 55.86588,-26.9478 37.91929,-21.91919 0,0 37.91929,-21.91919 l 159.03512,-93.71943 c -24.64966,-15.20201 -52.77763,-8.76401 -71.51651,0.38862 -41.65618,23.62594 -83.44666,47.13903 -125.1807,70.68569 -13.67362,9.05439 -18.41524,12.98451 -29.22299,22.59198 z m -77.33382,65.08638 c 0.77331,-0.0149 1.57144,-0.0297 2.06914,0 11.37505,-5.6e-4 19.42753,5.8054 22.76012,13.68107 3.33273,7.87532 1.71845,17.50087 -6.98335,24.46037 -5.8014,4.63996 -15.06052,7.25023 -23.79453,6.84052 -8.73472,-0.41004 -16.5879,-3.66577 -20.69128,-9.94986 l -0.25785,-0.20706 c -5.75383,-7.33525 -4.08326,-15.6342 1.55184,-22.59441 5.63503,-6.96069 15.29986,-12.08441 25.34689,-12.23015 z"
         style="color:#000000;text-indent:0;text-transform:none;block-progression:tb;fill:url(#linearGradient5009);fill-opacity:1"
         id="path5949-9" />
      <path
         inkscape:connector-curvature="0"
         id="path4917"
         d="m 372.21004,530.70077 a 11.271837,11.271837 0 0 1 -11.27185,11.27185 11.271837,11.271837 0 0 1 -11.27183,-11.27185 11.271837,11.271837 0 0 1 11.27183,-11.27182 11.271837,11.271837 0 0 1 11.27185,11.27182 z"
         style="opacity:1;fill:#4d4d4d;fill-opacity:1;fill-rule:nonzero;stroke:none;stroke-width:20;stroke-linecap:round;stroke-linejoin:round;stroke-miterlimit:4;stroke-dasharray:none;stroke-dashoffset:0;stroke-opacity:1" />
      <path
         inkscape:connector-curvature="0"
         id="rect4920-6"
         d="m 527.88733,430.56844 -145.61936,86.62433 10.45526,17.57433 2.90683,-1.68257 159.03945,-93.7202 c -8.68344,-5.35529 -17.79796,-7.98419 -26.78218,-8.79589 z"
         style="opacity:1;fill:#808080;fill-opacity:1;fill-rule:nonzero;stroke:none;stroke-width:20;stroke-linecap:round;stroke-linejoin:round;stroke-miterlimit:4;stroke-dasharray:none;stroke-dashoffset:0;stroke-opacity:1" />
      <path
         inkscape:connector-curvature="0"
         id="rect5000"
         d="m 354.79823,520.05581 3.58432,-1.38542 8.65885,22.40171 -3.58432,1.38542 z"
         style="opacity:1;fill:#999999;fill-opacity:1;fill-rule:nonzero;stroke:none;stroke-width:20;stroke-linecap:round;stroke-linejoin:round;stroke-miterlimit:4;stroke-dasharray:none;stroke-dashoffset:0;stroke-opacity:1" />
      <path
         sodipodi:nodetypes="cssssssscsscccsssscccscssssscsscssscssssssscssssssscsssccccsssscccssscssssssssscsssssssssccsscssssssssscssscscsssssssssscccssssscsscscsssscsscccccsssssssssscccssssss"
         style="fill:#666666"
         d="m 386.06719,509.70498 c -0.0717,-0.0184 -0.81781,-1.1959 -1.65785,-2.6166 -1.38164,-2.33662 -1.50893,-2.59401 -1.3341,-2.6974 0.10643,-0.0628 0.32459,-0.0875 0.48502,-0.0547 0.25932,0.053 0.32674,0.004 0.60659,-0.43672 0.86817,-1.36864 2.34235,-1.17978 3.28905,0.42129 0.6007,1.0159 0.64786,1.81036 0.15179,2.55777 -0.31848,0.47985 -0.45744,0.5922 -0.8648,0.69956 -0.26696,0.0703 -0.57563,0.15345 -0.68591,0.18473 -0.15836,0.0448 -0.1195,0.22168 0.18615,0.84281 0.33223,0.67527 0.35627,0.81039 0.17061,0.95938 -0.11882,0.0954 -0.27484,0.15825 -0.34655,0.13987 z m 0.93899,-3.2099 c 0.32069,-0.7069 -0.0841,-1.85179 -0.85904,-2.43 -0.70295,-0.52463 -1.46492,-0.27347 -1.76474,0.5815 -0.17346,0.49422 -0.16141,0.53933 0.39146,1.47431 0.53461,0.90414 0.59819,0.96815 1.01675,1.02396 0.53659,0.0715 1.00102,-0.17674 1.21557,-0.64977 z m 20.49676,-9.61441 c -0.0981,-0.0779 -0.78887,-1.17388 -1.53501,-2.43575 -0.74613,-1.26187 -1.3737,-2.3953 -1.39457,-2.51876 -0.0507,-0.29911 0.33059,-0.51021 0.61871,-0.34273 0.2135,0.12512 0.2532,0.0943 0.55301,-0.42355 0.41535,-0.71761 1.09857,-1.03495 1.84941,-0.85916 1.33789,0.31325 2.31734,2.31845 1.76182,3.60691 -0.19318,0.44788 -0.75558,0.85575 -1.47407,1.06879 l -0.43165,0.12801 0.34182,0.57804 c 0.4444,0.75157 0.47561,0.99271 0.15332,1.1833 -0.14552,0.086 -0.34468,0.0927 -0.44279,0.0149 z m 1.21019,-3.40603 c 0.17901,-0.6969 -0.3932,-1.80356 -1.19844,-2.31782 -0.47499,-0.30336 -1.14679,-0.0544 -1.48388,0.54987 l -0.24713,0.44547 0.62666,1.1352 c 0.62593,1.13388 0.62719,1.13519 1.05554,1.12512 0.52876,-0.0124 1.12594,-0.46078 1.2483,-0.93726 z m -27.41262,17.07802 c -1.64428,0.1102 -3.00299,-1.9051 -2.32127,-3.44299 0.30428,-0.68641 1.42545,-1.37742 2.1144,-1.30318 0.8245,0.0888 1.22522,0.33831 1.74487,1.08624 0.40717,0.58598 0.4963,0.81937 0.52882,1.38414 0.0436,0.7575 -0.41713,1.65157 -1.04103,2.02055 -0.19566,0.11575 -0.65727,0.23061 -1.02574,0.2553 z m 1.27618,-1.70716 c 0.16547,-0.90067 -0.70219,-2.18197 -1.55452,-2.29561 -1.00196,-0.13354 -1.78057,0.99032 -1.30429,1.88259 0.59619,1.11686 1.09805,1.54445 1.71572,1.46187 0.49934,-0.0668 1.0566,-0.57808 1.14309,-1.04885 z m 8.13588,-3.66841 c -0.90447,0.22429 -1.84288,-0.2755 -2.45229,-1.30599 -0.508,-0.85918 -0.53528,-1.59027 -0.0858,-2.30011 0.42687,-0.67424 0.88158,-0.96554 1.57465,-1.0089 0.72884,-0.0455 1.28693,0.22964 1.64829,0.81324 l 0.30424,0.49084 -1.2959,0.8443 -1.29593,0.84432 0.24634,0.37515 c 0.53258,0.81119 1.62061,0.71729 2.35259,-0.20285 0.30598,-0.38459 0.46498,-0.50368 0.61957,-0.46398 0.32221,0.0827 0.14099,0.6637 -0.36269,1.16262 -0.49396,0.48931 -0.70474,0.61575 -1.25323,0.75177 z m -0.0607,-3.58441 c -0.044,-0.12218 -0.28885,-0.27603 -0.54429,-0.34166 -0.77543,-0.19917 -1.55586,0.4665 -1.52046,1.29688 0.0217,0.50758 0.24773,0.48131 1.22124,-0.14187 0.76908,-0.49236 0.91017,-0.62837 0.84358,-0.81347 z m 8.85711,-1.60906 c -1.2594,0.29337 -2.65663,-0.94331 -2.74851,-2.43265 -0.0531,-0.86113 0.1866,-1.39061 0.84113,-1.85783 0.58973,-0.42098 1.51115,-0.56593 1.68869,-0.26563 0.10642,0.18001 -0.0173,0.2613 -1.02223,0.67086 -0.67227,0.27408 -0.90101,0.87857 -0.63858,1.68765 0.49325,1.52069 1.97204,1.96712 2.74122,0.82758 0.30691,-0.45464 0.55795,-0.54732 0.72366,-0.26707 0.22201,0.37544 -0.82929,1.46092 -1.58538,1.63709 z m 12.32048,-7.2416 c -0.81741,0.15173 -1.49785,-0.49006 -1.38859,-1.3097 0.0584,-0.43819 0.67818,-1.21308 1.38535,-1.73172 0.42448,-0.31139 0.2395,-0.79616 -0.39823,-1.04374 -0.48544,-0.18836 -0.82066,-0.01 -1.38128,0.73648 -0.35376,0.47065 -0.7442,0.45481 -0.66722,-0.0272 0.18152,-1.13661 1.87518,-1.94048 2.73566,-1.29845 0.5981,0.44626 2.11438,3.02585 1.92156,3.26904 -0.0755,0.0954 -0.27945,0.14434 -0.45295,0.10889 -0.29075,-0.0594 -0.34023,-0.0255 -0.6304,0.43187 -0.30754,0.48447 -0.69871,0.78553 -1.12388,0.86444 z m 0.99815,-1.59073 c 0.12856,-0.33107 0.10955,-0.50641 -0.0832,-0.77032 -0.2438,-0.3337 -0.26225,-0.33359 -0.79311,0.006 -0.29891,0.19102 -0.6217,0.5064 -0.71728,0.70089 -0.18678,0.37957 -0.01,0.84254 0.35852,0.93705 0.35783,0.0918 1.05057,-0.39793 1.23508,-0.87324 z m 6.44713,-3.07144 c -0.46862,-0.0836 -0.50406,-0.12208 -1.38936,-1.51156 -0.84933,-1.33309 -0.92526,-1.419 -1.16665,-1.32064 -0.40143,0.1636 -0.5361,-0.0781 -0.27542,-0.49425 0.19431,-0.31041 0.19292,-0.48476 -0.008,-0.9801 -0.42463,-1.04705 0.11412,-1.26447 0.69576,-0.2808 l 0.3336,0.56413 0.39535,-0.23378 c 0.50025,-0.29579 0.81988,-0.35099 0.93223,-0.16095 0.11234,0.19001 -0.09,0.44348 -0.59029,0.73927 l -0.39537,0.23378 0.78245,1.32327 c 0.51215,0.86615 0.84469,1.32451 0.96259,1.32681 0.0992,0.002 0.37119,-0.10213 0.60474,-0.23129 0.50691,-0.28034 0.72985,-0.0577 0.42306,0.42262 -0.30898,0.48359 -0.77301,0.69824 -1.30478,0.60349 z m -25.31452,14.98063 c -0.0801,-0.0636 -0.60661,-0.92796 -1.16996,-1.92093 -0.95214,-1.67824 -1.01029,-1.81771 -0.82598,-1.98058 0.10895,-0.0964 0.31282,-0.12604 0.45281,-0.066 0.23537,0.10107 0.27731,0.0716 0.55748,-0.3907 0.37945,-0.62621 0.85685,-0.9134 1.50372,-0.90463 0.69237,0.009 1.12331,0.45178 2.03054,2.08431 l 0.75084,1.35121 -0.28916,0.17094 -0.28913,0.17098 -0.93611,-1.45109 c -0.87381,-1.3546 -0.96291,-1.45505 -1.33963,-1.51037 -0.2219,-0.0327 -0.50446,4e-4 -0.62782,0.0734 -0.32324,0.19113 -0.69535,0.83304 -0.68068,1.17447 0.007,0.1612 0.36843,0.89492 0.80346,1.63065 l 0.79099,1.3377 -0.29279,0.17313 c -0.16107,0.0952 -0.35834,0.12111 -0.43849,0.0576 z m 8.44261,-5.03733 c -0.0981,-0.0779 -0.85044,-1.27796 -1.6718,-2.66707 -0.82137,-1.38908 -1.51049,-2.62663 -1.53136,-2.75009 -0.0492,-0.29096 0.43802,-0.57905 0.66922,-0.39569 0.0982,0.0776 0.8504,1.27797 1.67178,2.66705 0.82137,1.3891 1.51047,2.62667 1.53136,2.7501 0.0209,0.12343 -0.0811,0.2948 -0.22656,0.38073 -0.14552,0.086 -0.34468,0.0927 -0.44277,0.0149 z m 2.19822,-1.25453 c -0.0801,-0.0636 -0.60699,-0.92863 -1.17082,-1.9224 l -1.02512,-1.80685 0.29646,-0.22466 0.29646,-0.22466 1.16715,1.97394 1.16719,1.97392 -0.29278,0.17312 c -0.16106,0.0952 -0.35836,0.12113 -0.43849,0.0576 z m 9.75138,-8.20764 c -1.1146,-1.88503 -1.15695,-1.97997 -0.93991,-2.10829 0.12496,-0.0739 0.3422,-0.0646 0.48268,0.0206 0.24974,0.1505 0.26154,0.14198 0.51135,-0.38786 0.34842,-0.73856 0.90868,-1.01017 1.22459,-0.59338 0.21202,0.27978 0.19861,0.31183 -0.23944,0.5706 -0.32327,0.19116 -0.51229,0.41693 -0.6236,0.74488 -0.15453,0.45545 -0.13546,0.51587 0.59221,1.87426 l 0.75195,1.40367 -0.29647,0.22464 -0.29645,0.22465 z m -12.70649,3.37092 c -0.22879,-0.15957 -0.28923,-0.27077 -0.25695,-0.47248 0.059,-0.3689 0.53459,-0.61412 0.8361,-0.43121 0.32591,0.19781 0.33323,0.21426 0.24534,0.55649 -0.11006,0.42885 -0.48267,0.58572 -0.82451,0.3472 z"
         id="path5099"
         inkscape:connector-curvature="0" />
    </g>
  </g>
</svg>
